<svg xmlns="http://www.w3.org/2000/svg" viewBox="0 0 383.36 268.22"><title>menu</title><g id="Layer_2" data-name="Layer 2"><g id="Layer_1-2" data-name="Layer 1"><path d="M0,130.38a8.24,8.24,0,0,0,.69-1.27c3-9,9.41-13.89,18.89-14.17,3.62-.11,7.24,0,10.86,0q165.21,0,330.43,0a32,32,0,0,1,9.57,1.22A18.79,18.79,0,0,1,383.17,136a19,19,0,0,1-16.32,17,46.28,46.28,0,0,1-6.34.34q-168.21,0-336.43.13c-11.9,0-20.27-3.85-24.08-15.58Z"/><path d="M239.4,0q61.93,0,123.87,0c11.58,0,20.05,8.26,20,19.24a19.23,19.23,0,0,1-18,19c-1,.06-2,0-3,0H116.72c-10.24,0-17.73-5.21-20.16-14A18.91,18.91,0,0,1,114.4.12C130.12-.09,145.84.05,161.56,0Z"/><path d="M277.56,268.2c-28.55,0-57.1.06-85.65,0-12.54,0-21.19-10.52-19-22.71,1.58-9,9.49-15.48,19.27-15.51,20.69,0,41.39,0,62.09,0H363.44c7.77,0,13.76,3.3,17.47,10.14a18,18,0,0,1-.66,19.18c-3.9,6.2-9.72,9-17,9Q320.4,268.16,277.56,268.2Z"/></g></g></svg>